<svg width="85" height="29" fill="none" xmlns="http://www.w3.org/2000/svg"><path d="M9.292 5.593v15.73h2.762V15.27h4.44c3.182 0 5.104-1.9 5.104-4.883 0-3.291-2.231-4.794-5.479-4.794H9.292zm2.762 2.298h3.601c1.746 0 3.248.53 3.248 2.563 0 1.856-1.215 2.585-3.005 2.585h-3.844V7.89z" fill="#596069"/><path d="M6.757 1.4c4.619.66 12.262 8.1 15.341 11.564v-.495C9.891-1.716 2.631-.743 1.148.924-.83 3.15-1.16 8.988 7.748 18.06c8.908 9.073 14.351 10.74 17.485 9.915 2.508-.66 2.695-4.014 2.475-5.608h-.825c0 1.154-.495 3.116-1.485 3.776-.99.66-6.928.99-14.846-7.093S1.48 6.523 1.48 5.03c0-.99-.495-4.454 5.278-3.63z" fill="url(#paint0_linear)"/><path d="M32.562 2.05v1.56h-2.508v6.786h-1.84V3.609h-2.509V2.051h6.857zm4.739-.199c1.219 0 2.203.407 2.953 1.22.758.804 1.137 1.859 1.137 3.164 0 1.305-.379 2.36-1.137 3.164-.75.797-1.738 1.196-2.965 1.196-1.235 0-2.23-.399-2.989-1.196-.758-.805-1.136-1.86-1.136-3.164 0-1.32.374-2.38 1.125-3.177.758-.804 1.762-1.207 3.012-1.207zm-.024 1.5c-.687 0-1.238.258-1.652.774-.407.516-.61 1.207-.61 2.075 0 .898.203 1.601.61 2.11.406.507.965.765 1.676.773.695 0 1.242-.258 1.64-.774.4-.515.598-1.219.598-2.11 0-.875-.203-1.566-.609-2.074-.406-.516-.957-.773-1.653-.773zm5.384-1.3h3.598c.938 0 1.68.226 2.227.68.555.445.832 1.113.832 2.004 0 .875-.273 1.539-.82 1.992-.547.445-1.262.668-2.145.668h-1.876v3h-1.816V2.052zm1.816 1.5v2.402h1.63c.953 0 1.43-.398 1.43-1.195 0-.805-.473-1.207-1.419-1.207h-1.64z" fill="url(#paint1_linear)"/><path d="M25.2 10.67v3.904c.6-.806 1.4-1.208 2.402-1.208 1.778 0 2.667.938 2.667 2.814v4.98h-2.092v-4.48c0-.52-.094-.918-.28-1.193-.187-.275-.54-.412-1.061-.412-.629 0-1.06.201-1.297.604-.226.403-.339.938-.339 1.606v3.875h-2.062V10.67H25.2zm13.214 10.49h-2.122a3.242 3.242 0 01-.147-.737c-.639.639-1.459.958-2.461.958-.845 0-1.508-.201-1.99-.604-.48-.413-.721-.977-.721-1.694 0-.324.04-.61.118-.855a1.5 1.5 0 01.412-.619c.197-.167.378-.304.545-.412a2.43 2.43 0 01.722-.266c.305-.068.55-.117.737-.147.187-.04.447-.078.781-.118.737-.098 1.228-.201 1.474-.31.255-.107.383-.309.383-.603 0-.678-.457-1.017-1.37-1.017-.482 0-.836.088-1.061.265-.226.167-.374.467-.442.899h-1.96c.118-1.71 1.291-2.564 3.521-2.564 2.21 0 3.316.825 3.316 2.476v3.285c0 .963.088 1.65.265 2.063zm-2.284-3.698c-.246.147-.737.28-1.474.398-.618.098-1.021.22-1.208.368-.216.187-.324.442-.324.766 0 .314.098.565.295.752.206.177.491.265.854.265.56 0 1.007-.148 1.341-.442.344-.305.516-.722.516-1.253v-.854zm8.092-4.037v1.93a4.161 4.161 0 00-.81-.089c-.688 0-1.194.221-1.518.664-.324.432-.486 1.016-.486 1.753v3.477h-2.092v-7.603h1.989v1.4c.5-1.051 1.321-1.577 2.46-1.577.099 0 .251.015.457.045zm11.99 7.735h-2.123v-4.538c0-.501-.078-.884-.235-1.15-.157-.274-.482-.412-.973-.412-.972 0-1.459.61-1.459 1.827v4.273H49.33v-4.626c0-.472-.078-.835-.236-1.09-.157-.266-.461-.399-.913-.399-1.012 0-1.518.664-1.518 1.99v4.125h-2.092v-7.603h1.99v1.046c.598-.835 1.404-1.252 2.416-1.252 1.05 0 1.768.417 2.15 1.252.61-.835 1.44-1.252 2.491-1.252.835 0 1.473.245 1.915.737.452.481.678 1.134.678 1.96v5.112zm8.195 0h-2.122a3.242 3.242 0 01-.147-.737c-.638.639-1.459.958-2.46.958-.845 0-1.508-.201-1.99-.604-.481-.413-.722-.977-.722-1.694 0-.324.04-.61.118-.855.089-.245.226-.452.413-.619.196-.167.378-.304.545-.412a2.43 2.43 0 01.722-.266 12.9 12.9 0 01.737-.147c.186-.04.447-.078.78-.118.737-.098 1.228-.201 1.474-.31.255-.107.383-.309.383-.603 0-.678-.457-1.017-1.37-1.017-.482 0-.835.088-1.061.265-.226.167-.373.467-.442.899h-1.96c.118-1.71 1.292-2.564 3.522-2.564 2.21 0 3.315.825 3.315 2.476v3.285c0 .963.088 1.65.265 2.063zm-2.284-3.698c-.245.147-.736.28-1.473.398-.619.098-1.022.22-1.208.368-.216.187-.325.442-.325.766 0 .314.099.565.295.752.206.177.491.265.855.265.56 0 1.007-.148 1.34-.442.344-.305.516-.722.516-1.253v-.854zm10.406.766c-.128.982-.516 1.748-1.164 2.299-.638.55-1.464.825-2.475.825-1.17 0-2.107-.359-2.815-1.076-.707-.717-1.06-1.67-1.06-2.858 0-1.228.353-2.215 1.06-2.962.717-.746 1.665-1.12 2.844-1.12 1.012 0 1.837.26 2.475.781.639.51 1.002 1.208 1.09 2.092h-2.047c-.157-.874-.658-1.31-1.503-1.31-.57 0-1.017.22-1.341.662-.314.432-.472 1.036-.472 1.812 0 .757.153 1.346.457 1.769.315.412.752.618 1.312.618.913 0 1.453-.51 1.62-1.532h2.019zm7.606-4.67l-2.8 7.573c-.137.383-.24.648-.309.795a7.286 7.286 0 01-.294.649c-.128.275-.251.466-.369.574a3.49 3.49 0 01-.457.369c-.186.137-.402.23-.648.28-.236.049-.51.073-.825.073-.256 0-.722-.005-1.4-.014v-1.724h1.017c.344 0 .604-.089.78-.266.187-.176.28-.427.28-.751a.969.969 0 00-.058-.295l-2.756-7.264h2.255l1.739 5.172 1.68-5.172h2.165zM9.292 5.593v8.754h2.762v.923h4.44c3.182 0 5.104-1.9 5.104-4.883 0-3.291-2.231-4.794-5.479-4.794H9.292zm2.762 2.298h3.601c1.746 0 3.248.53 3.248 2.563 0 1.856-1.215 2.585-3.005 2.585h-3.844V7.89z" fill="#596069"/><defs><linearGradient id="paint0_linear" x1="0" y1="14.081" x2="27.775" y2="14.081" gradientUnits="userSpaceOnUse"><stop stop-color="#83C73D"/><stop offset=".996" stop-color="#61C73D"/></linearGradient><linearGradient id="paint1_linear" x1="24.739" y1="7.004" x2="50.472" y2="7.004" gradientUnits="userSpaceOnUse"><stop stop-color="#83C73D"/><stop offset=".996" stop-color="#61C73D"/></linearGradient></defs></svg>