<svg width="82" height="29" fill="none" xmlns="http://www.w3.org/2000/svg"><g clip-path="url(#clip0)"><path d="M34.523 9.39c0 .92-.28 1.654-.841 2.202-.56.544-1.314.816-2.261.816-1.03 0-1.842-.333-2.438-.998-.597-.669-.895-1.578-.895-2.728 0-1.134.3-2.037.9-2.709.6-.675 1.404-1.013 2.413-1.013.82 0 1.506.217 2.06.65.554.432.888 1.01 1.003 1.735H33.2c-.128-.404-.347-.713-.659-.93-.307-.216-.688-.324-1.14-.324-.62 0-1.11.231-1.475.693-.36.462-.54 1.091-.54 1.888 0 .806.183 1.442.55 1.907.37.465.872.698 1.504.698.541 0 .98-.15 1.318-.452.337-.302.511-.697.52-1.185l.006-.147h-1.706V8.5h2.945v.89zm5.997 1.73v1.11h-4.523V5.138h1.269v5.983h3.254zm4.193-6.16c1.029 0 1.843.335 2.443 1.003.603.669.904 1.575.904 2.719 0 1.143-.3 2.051-.9 2.723-.599.668-1.415 1.003-2.447 1.003-1.04 0-1.86-.335-2.463-1.003-.6-.669-.9-1.576-.9-2.723 0-1.144.302-2.05.905-2.719.606-.668 1.425-1.003 2.458-1.003zm0 1.126c-.633 0-1.136.234-1.51.703-.37.469-.555 1.1-.555 1.893 0 .796.184 1.428.55 1.897.371.469.876.703 1.515.703.629 0 1.127-.234 1.494-.703.37-.472.556-1.104.556-1.897 0-.793-.186-1.424-.556-1.893-.367-.469-.865-.703-1.494-.703zm7.835 6.145h-3.033V5.137h2.965c.671 0 1.199.16 1.582.477.384.315.576.746.576 1.293 0 .374-.122.706-.364.998a1.425 1.425 0 01-.9.521v.088c.479.046.867.227 1.165.541.298.312.447.698.447 1.16 0 .623-.217 1.114-.653 1.475-.433.36-1.028.54-1.785.54zm-1.764-6.086v1.976h1.224c.449 0 .79-.083 1.022-.25.236-.17.354-.417.354-.738 0-.311-.106-.554-.32-.727-.212-.174-.51-.26-.894-.26h-1.386zm0 5.078h1.474c.469 0 .825-.093 1.067-.28.242-.19.364-.466.364-.826 0-.354-.126-.623-.379-.806-.249-.184-.616-.275-1.1-.275h-1.426v2.187zm10.16 1.008l-.6-1.814h-2.61l-.61 1.814h-1.282l2.517-7.094h1.425l2.522 7.094h-1.362zm-1.941-5.742l-.974 2.925h2.02l-.963-2.925h-.083zm9.044 4.63v1.112h-4.522V5.137h1.268v5.983h3.254z" fill="#43AEED"/><path d="M1.608 13.072h4.944c1.221 0 2.21.378 2.965 1.134.761.75 1.142 1.738 1.142 2.965 0 1.215-.392 2.198-1.175 2.948s-1.801 1.125-3.055 1.125H4.09v3.679H1.61v-11.85zm2.48 2.037v4.123h1.8c.716 0 1.27-.175 1.658-.526.394-.356.591-.865.591-1.527 0-.668-.194-1.18-.583-1.536-.388-.356-.941-.534-1.659-.534H4.09zm8.109 9.814V12.407h2.349v4.944h.148c.207-.514.566-.92 1.075-1.215.51-.296 1.098-.444 1.766-.444 1.013 0 1.799.296 2.357.887.564.591.846 1.43.846 2.513v5.831h-2.39v-5.264c0-.624-.153-1.098-.46-1.42-.301-.324-.739-.485-1.314-.485-.597 0-1.079.18-1.445.542-.362.36-.542.837-.542 1.428v5.199h-2.39zm13.537-1.659c.552 0 1.015-.156 1.387-.468.373-.312.559-.698.559-1.158v-.665l-1.831.115c-1.019.071-1.528.435-1.528 1.092 0 .334.129.6.386.797.263.191.605.287 1.026.287zm-.789 1.799c-.876 0-1.59-.25-2.143-.748-.548-.498-.822-1.158-.822-1.979 0-.816.302-1.456.904-1.922.608-.47 1.475-.739 2.603-.804l2.193-.132v-.739c0-.378-.131-.668-.394-.87-.263-.209-.64-.313-1.134-.313-.887 0-1.431.28-1.634.838h-2.2c.076-.837.47-1.5 1.182-1.987.717-.493 1.645-.74 2.784-.74 1.193 0 2.116.269 2.767.805.657.537.986 1.293.986 2.267v6.184H27.72V23.74h-.148a2.43 2.43 0 01-1.051.978 3.51 3.51 0 01-1.577.345zm6.852-.14v-9.058h2.316v1.445h.148c.12-.46.394-.84.82-1.141a2.5 2.5 0 011.48-.452c.399 0 .705.038.919.115v2.176c-.093-.038-.26-.071-.501-.098a4.525 4.525 0 00-.616-.05c-.651 0-1.177.184-1.577.55-.4.367-.6.866-.6 1.495v5.018h-2.39zm6.753 0v-9.058h2.316v1.478h.148a2.4 2.4 0 01.944-1.224c.45-.3.97-.451 1.56-.451.63 0 1.159.147 1.586.443.432.29.739.7.92 1.232h.147a2.57 2.57 0 011.051-1.215c.488-.307 1.046-.46 1.676-.46.903 0 1.618.273 2.143.82.526.548.789 1.288.789 2.218v6.217h-2.39v-5.584c0-1.073-.504-1.61-1.511-1.61-.482 0-.868.153-1.158.46-.29.306-.435.703-.435 1.19v5.544h-2.3V19.24c0-.476-.131-.846-.394-1.109-.263-.268-.63-.402-1.1-.402-.466 0-.85.164-1.15.493-.302.328-.452.744-.452 1.248v5.453h-2.39zm18.284-1.659c.552 0 1.015-.156 1.387-.468.373-.312.559-.698.559-1.158v-.665l-1.831.115c-1.019.071-1.528.435-1.528 1.092 0 .334.129.6.386.797.263.191.605.287 1.027.287zm-.789 1.799c-.876 0-1.59-.25-2.143-.748-.548-.498-.822-1.158-.822-1.979 0-.816.302-1.456.904-1.922.608-.47 1.475-.739 2.603-.804l2.193-.132v-.739c0-.378-.132-.668-.394-.87-.263-.209-.64-.313-1.134-.313-.887 0-1.431.28-1.634.838h-2.2c.076-.837.47-1.5 1.182-1.987.717-.493 1.645-.74 2.784-.74 1.193 0 2.116.269 2.767.805.657.537.986 1.293.986 2.267v6.184H58.82V23.74h-.148a2.43 2.43 0 01-1.051.978 3.51 3.51 0 01-1.577.345zm14.867-6.004h-2.234c-.082-.443-.279-.79-.59-1.043-.307-.257-.71-.386-1.208-.386-.646 0-1.144.236-1.495.707-.345.47-.517 1.15-.517 2.036 0 .898.172 1.588.517 2.07.35.476.849.714 1.495.714.493 0 .892-.117 1.199-.353.312-.235.512-.575.6-1.018h2.233c-.098 1.024-.504 1.837-1.215 2.439-.712.597-1.65.895-2.817.895-1.413 0-2.505-.41-3.277-1.232-.766-.827-1.15-1.998-1.15-3.515 0-1.505.384-2.666 1.15-3.482.767-.815 1.859-1.223 3.277-1.223 1.183 0 2.124.304 2.825.911.706.608 1.109 1.435 1.207 2.48zm2.41 9.174c-.51 0-.814-.009-.913-.025v-1.93c.083.016.263.025.542.025.45 0 .803-.08 1.06-.239.263-.158.443-.41.542-.755l.082-.329-3.178-9.115h2.636l1.905 6.865h.148l1.905-6.865h2.53l-3.12 9.198c-.384 1.166-.888 1.984-1.512 2.455-.619.476-1.495.715-2.628.715z" fill="#596069"/><mask id="a" style="mask-type:alpha" maskUnits="userSpaceOnUse" x="1" y="0" width="25" height="26"><path d="M18.225 23.209a.331.331 0 00.042-.022c3.174-1.581 5.55-4.795 6.113-8.307 1.5-.264 1.606-2.362.127-2.761a11.514 11.514 0 00-.126-1.04c1.311-.748.729-2.757-.781-2.645-1.385-3.243-4.394-5.75-7.834-6.524-.092-1.62-2.338-1.857-2.776-.29-.513.01-1.028.054-1.534.132-.437.067-.328.756.106.69.471-.073.95-.114 1.427-.124.209.83 1.143 1.283 1.926.944a15.179 15.179 0 011.738 3.485c-.289.198-.502.51-.58.852-1.216.016-2.429.17-3.614.46a1.424 1.424 0 00-1.782-.5 21.751 21.751 0 00-3.651-2.46 1.422 1.422 0 00-.06-.79A10.677 10.677 0 019.87 2.845c.415-.135.218-.804-.216-.663-1.107.36-2.144.884-3.089 1.557-1.296-1.054-3 .534-2.069 1.898a11.52 11.52 0 00-2.624 9.118c-1.288.732-.749 2.685.726 2.644 1.359 3.38 4.469 5.998 8.03 6.762.145 1.57 2.316 1.778 2.766.263 1.7-.046 3.345-.467 4.83-1.214zm.166-.88a21.88 21.88 0 00-.74-4.011 1.43 1.43 0 00.655-1.327c1.741-.596 3.4-1.41 4.938-2.423.134.113.283.196.439.251-.518 3.11-2.546 5.974-5.292 7.51zM3.576 15.011A15.297 15.297 0 0110.087 9.6c.447.699 1.437.851 2.078.329a20.878 20.878 0 013.92 6.047 1.433 1.433 0 00-.59 1.06 21.05 21.05 0 01-11.544-.858 1.41 1.41 0 00-.375-1.166zm12.782 1.655a.715.715 0 011.005-.09c.697.638-.176 1.674-.923 1.096a.715.715 0 01-.082-1.006zm8.343-2.72a.715.715 0 01-1.005.09c-.697-.638.176-1.674.923-1.096.3.252.337.704.082 1.006zm-.893-1.824a1.431 1.431 0 00-.968 1.877 21.1 21.1 0 01-4.767 2.335 1.43 1.43 0 00-.434-.417c.584-2.18.704-4.485.35-6.705a1.43 1.43 0 00.74-.717 15.18 15.18 0 013.6 1.06c-.192.85.49 1.71 1.374 1.697.047.288.082.579.105.87zm-6.905-4.67a.715.715 0 011.006-.09c.697.638-.176 1.674-.923 1.097a.715.715 0 01-.083-1.007zm7.268 1.84c.3.253.337.705.083 1.007-.643.702-1.671-.164-1.089-.916a.715.715 0 011.006-.09zM13.895 2.516a.715.715 0 01-.083-1.007c.642-.702 1.67.164 1.089.917a.715.715 0 01-1.006.09zm1.573.317c.06-.076.11-.157.151-.24 3.206.724 6.013 3.053 7.32 6.068a1.442 1.442 0 00-.303.267 15.88 15.88 0 00-3.782-1.12 1.42 1.42 0 00-1.546-1.301 15.882 15.882 0 00-1.84-3.674zm.622 5.464c.153.55.64.96 1.208 1.017.34 2.12.227 4.319-.327 6.4-.078-.003-.157 0-.234.01a21.573 21.573 0 00-4.151-6.368c.081-.203.113-.42.097-.633 1.118-.27 2.26-.412 3.407-.426zm-4.352-.01c.3.252.338.703.083 1.006-.642.702-1.67-.165-1.088-.917a.715.715 0 011.005-.09zM5.101 4.353a.715.715 0 011.006-.09c.697.637-.176 1.674-.923 1.096a.715.715 0 01-.083-1.006zm-.07 1.731s.959.505 1.687-.359c0 0 2.359 1.418 3.415 2.287a1.412 1.412 0 00-.263.92 15.992 15.992 0 00-6.887 5.709 1.41 1.41 0 00-.43-.065c-.429-3.024.778-6.472 2.478-8.492zM2.093 16.536a.715.715 0 01-.083-1.006.715.715 0 011.006-.09c.296.25.328.715.082 1.006a.715.715 0 01-1.005.09zm4.141 4.695a10.649 10.649 0 01-2.963-4.03 1.45 1.45 0 00.417-.377 21.747 21.747 0 0011.934.898c.096.209.244.392.427.53a15.03 15.03 0 01-.847 1.572c-.238.386.354.754.594.366.33-.535.632-1.096.898-1.67.097.015.195.018.293.012.382 1.354.628 2.746.733 4.147-1.334.638-2.798 1-4.31 1.046a1.407 1.407 0 00-.154-.39c.47-.452.914-.933 1.323-1.435.288-.353-.252-.794-.54-.441-.394.482-.821.945-1.273 1.38-.713-.43-1.674-.124-2.015.633a10.647 10.647 0 01-4.517-2.241zm5.34 3.366a.715.715 0 01-.082-1.006c.642-.702 1.67.164 1.088.916a.715.715 0 01-1.005.09z" fill="#000"/></mask><g mask="url(#a)"><path fill="#43AEED" d="M-2.875-.971h29V11.67h-29z"/></g></g><defs><clipPath id="clip0"><path fill="#fff" d="M0 0h81.051v29H0z"/></clipPath></defs></svg>