<svg width="157" height="53" fill="none" xmlns="http://www.w3.org/2000/svg"><path d="M17.704 10.937v28.94h5.078V28.74h8.166c5.85 0 9.384-3.495 9.384-8.983 0-6.056-4.103-8.82-10.075-8.82H17.704zm5.078 4.227h6.622c3.21 0 5.972.976 5.972 4.715 0 3.415-2.235 4.756-5.525 4.756h-7.07v-9.47z" fill="#fff"/><path d="M13.042 3.222c8.493 1.214 22.547 14.903 28.21 21.276v-.91C18.804-2.512 5.453-.722 2.73 2.344c-3.64 4.097-4.247 14.838 12.132 31.53 16.38 16.69 26.39 19.758 32.152 18.24 4.61-1.213 4.954-7.384 4.55-10.318h-1.517c0 2.125-.91 5.734-2.73 6.948-1.82 1.214-12.739 1.82-27.298-13.05C5.459 20.824 3.336 12.647 3.336 9.9c0-1.821-.91-8.194 9.706-6.677z" fill="url(#paint0_linear)"/><path d="M60.487 3.861H47.873V6.73h4.614v12.485h3.386V6.729h4.614V3.861zm8.719-.366c-4.593 0-7.612 3.191-7.612 8.064 0 4.809 3.04 8.022 7.59 8.022 4.507 0 7.547-3.235 7.547-8.022 0-4.808-3.04-8.064-7.525-8.064zm-.043 2.76c2.566 0 4.161 2.005 4.161 5.24 0 3.277-1.574 5.304-4.118 5.304-2.61-.022-4.205-2.005-4.205-5.304 0-3.192 1.617-5.24 4.162-5.24zm9.904-2.394v15.353h3.342v-5.52h3.45c3.084 0 5.456-1.553 5.456-4.895 0-3.385-2.308-4.938-5.628-4.938h-6.62zm3.342 2.76h3.019c1.488 0 2.609.582 2.609 2.221 0 1.704-1.121 2.2-2.63 2.2h-2.998v-4.42z" fill="url(#paint1_linear)"/><path d="M46.93 20.038h-3.794V39.34h3.795v-7.13c0-2.06.46-4.065 3.009-4.065 2.06 0 2.467 1.247 2.467 2.954v8.241h3.849v-9.162c0-3.253-1.491-5.178-4.907-5.178-1.924 0-3.307.732-4.418 2.223v-7.184zM71.24 39.34c-.515-1.193-.488-2.52-.488-3.795V29.5c0-3.903-3.28-4.554-6.099-4.554-4.039 0-6.262 1.6-6.479 4.717h3.606c.27-1.6 1.003-2.142 2.765-2.142 1.707 0 2.52.597 2.52 1.87 0 1.14-.921 1.356-3.415 1.681-2.765.353-6.1.786-6.1 4.446 0 2.63 1.898 4.229 4.989 4.229 1.68 0 3.334-.57 4.527-1.762.054.623.081.84.27 1.355h3.904zm-4.201-6.804v1.572c0 2.006-1.41 3.118-3.416 3.118-1.328 0-2.114-.705-2.114-1.87 0-1.708 1.49-1.871 2.819-2.088.976-.163 1.816-.217 2.71-.732zm14.888-7.427c-.38-.055-.543-.082-.84-.082-2.088 0-3.66 1.085-4.528 2.9v-2.574H72.9V39.34h3.85v-6.397c0-2.548 1.03-4.446 3.687-4.446.433 0 .813.027 1.49.163v-3.551zm22.056 14.231v-9.406c0-2.982-1.626-4.96-4.77-4.96-1.98 0-3.47.785-4.582 2.303-.705-1.545-2.114-2.304-3.958-2.304-1.978 0-3.36.786-4.445 2.304v-1.924h-3.66V39.34h3.85v-7.59c0-1.898.569-3.66 2.792-3.66 1.816 0 2.114 1.247 2.114 2.738v8.512h3.85v-7.861c0-1.898.677-3.361 2.683-3.361 1.979 0 2.223 1.328 2.223 2.873v8.35h3.903zm15.079 0c-.515-1.193-.488-2.52-.488-3.795V29.5c0-3.903-3.28-4.554-6.099-4.554-4.039 0-6.262 1.6-6.479 4.717h3.605c.271-1.6 1.003-2.142 2.765-2.142 1.708 0 2.521.597 2.521 1.87 0 1.14-.921 1.356-3.415 1.681-2.765.353-6.099.786-6.099 4.446 0 2.63 1.897 4.229 4.987 4.229 1.681 0 3.335-.57 4.527-1.762.055.623.082.84.271 1.355h3.904zm-4.202-6.804v1.572c0 2.006-1.409 3.118-3.415 3.118-1.329 0-2.115-.705-2.115-1.87 0-1.708 1.491-1.871 2.819-2.088.976-.163 1.817-.217 2.711-.732zm19.144 1.41h-3.714c-.298 1.843-1.328 2.819-2.981 2.819-2.061 0-3.253-1.6-3.253-4.392 0-2.873 1.247-4.554 3.334-4.554 1.491 0 2.494.868 2.765 2.413h3.768c-.325-3.253-2.819-5.286-6.56-5.286-4.337 0-7.184 2.982-7.184 7.509 0 4.364 2.819 7.237 7.13 7.237 3.713 0 6.207-2.114 6.695-5.746zm13.994-8.593h-3.985l-3.091 9.514-3.198-9.514h-4.148l5.069 13.364c.055.162.109.406.109.542 0 1.165-.678 1.87-1.952 1.87h-1.87V44.3c1.87.027 1.382.027 2.575.027 3.551 0 4.202-1.952 5.34-5.042l5.151-13.933zM17.704 10.937V27.04h5.078v1.7h8.166c5.85 0 9.384-3.496 9.384-8.984 0-6.056-4.103-8.82-10.075-8.82H17.704zm5.078 4.227h6.622c3.21 0 5.972.976 5.972 4.715 0 3.415-2.235 4.756-5.525 4.756h-7.07v-9.47z" fill="#fff"/><defs><linearGradient id="paint0_linear" x1=".617" y1="26.553" x2="51.69" y2="26.553" gradientUnits="userSpaceOnUse"><stop stop-color="#83C73D"/><stop offset=".996" stop-color="#61C73D"/></linearGradient><linearGradient id="paint1_linear" x1="46.107" y1="13.532" x2="93.425" y2="13.532" gradientUnits="userSpaceOnUse"><stop stop-color="#83C73D"/><stop offset=".996" stop-color="#61C73D"/></linearGradient></defs></svg>