<svg width="116" height="41" fill="none" xmlns="http://www.w3.org/2000/svg"><g clip-path="url(#clip0)"><path d="M49.408 12.934c0 1.318-.4 2.368-1.203 3.151-.802.779-1.88 1.168-3.236 1.168-1.473 0-2.636-.476-3.49-1.428-.853-.957-1.28-2.258-1.28-3.904 0-1.623.43-2.915 1.288-3.877.858-.966 2.01-1.45 3.454-1.45 1.172 0 2.155.31 2.948.93.792.619 1.27 1.446 1.435 2.483h-1.808c-.183-.577-.497-1.02-.943-1.33-.44-.31-.985-.464-1.632-.464-.887 0-1.59.33-2.11.992-.517.661-.775 1.562-.775 2.701 0 1.154.263 2.064.788 2.73.53.666 1.248 1 2.153 1 .774 0 1.403-.217 1.886-.648.483-.432.731-.997.745-1.696l.007-.21h-2.44V11.66h4.213v1.274zm8.583 2.476V17H51.52V6.848h1.815v8.562h4.657zm6.001-8.815c1.473 0 2.639.478 3.497 1.435.863.957 1.294 2.254 1.294 3.89 0 1.637-.429 2.937-1.287 3.898-.858.957-2.026 1.435-3.504 1.435-1.486 0-2.661-.478-3.524-1.435-.859-.957-1.288-2.256-1.288-3.897 0-1.637.432-2.934 1.295-3.891.867-.957 2.04-1.435 3.517-1.435zm0 1.61c-.905 0-1.625.336-2.16 1.007-.53.67-.794 1.574-.794 2.709 0 1.14.262 2.045.788 2.715.53.67 1.252 1.006 2.166 1.006.9 0 1.614-.335 2.14-1.006.53-.675.794-1.58.794-2.715 0-1.135-.265-2.038-.795-2.709-.525-.67-1.238-1.006-2.139-1.006zM75.207 17h-4.341V6.848h4.242c.962 0 1.717.228 2.266.683.548.45.823 1.067.823 1.85 0 .534-.174 1.01-.521 1.428a2.04 2.04 0 01-1.288.746v.126c.685.066 1.241.324 1.668.774.427.446.64 1 .64 1.66 0 .892-.312 1.595-.936 2.111-.619.516-1.47.774-2.553.774zM72.68 8.29v2.829h1.752c.642 0 1.13-.12 1.463-.36.338-.243.507-.595.507-1.055 0-.445-.153-.792-.458-1.04-.304-.25-.731-.374-1.28-.374H72.68zm0 7.268h2.11c.671 0 1.18-.134 1.527-.401.347-.272.52-.666.52-1.182 0-.507-.18-.891-.54-1.154-.357-.263-.883-.394-1.577-.394h-2.04v3.13zM87.223 17l-.858-2.596h-3.736L81.756 17H79.92l3.602-10.152h2.04L89.172 17h-1.95zm-2.78-8.217l-1.392 4.186h2.891l-1.378-4.186h-.12zM97.39 15.41V17h-6.473V6.848h1.816v8.562h4.657z" fill="#43AEED"/><path d="M2.302 18.618h7.076c1.747 0 3.161.54 4.243 1.622 1.089 1.073 1.633 2.488 1.633 4.243 0 1.74-.56 3.146-1.68 4.22-1.12 1.073-2.578 1.61-4.373 1.61h-3.35v5.265H2.303v-16.96zm3.55 2.915v5.9h2.574c1.026 0 1.817-.25 2.374-.752.564-.51.846-1.238.846-2.187 0-.956-.278-1.688-.834-2.197-.557-.51-1.348-.765-2.375-.765H5.852zm11.604 14.045V17.666h3.362v7.075h.211c.298-.736.811-1.316 1.54-1.74.729-.422 1.57-.634 2.527-.634 1.45 0 2.574.423 3.373 1.27.807.846 1.21 2.044 1.21 3.596v8.345h-3.42v-7.534c0-.893-.219-1.571-.658-2.033-.43-.463-1.057-.694-1.88-.694-.854 0-1.544.259-2.069.776-.517.517-.776 1.199-.776 2.045v7.44h-3.42zm19.374-2.374c.791 0 1.453-.224 1.986-.67.533-.447.8-1 .8-1.657v-.952l-2.622.164c-1.457.102-2.186.623-2.186 1.563 0 .478.184.858.553 1.14.376.275.865.412 1.469.412zm-1.13 2.574c-1.253 0-2.276-.357-3.067-1.07-.784-.713-1.176-1.657-1.176-2.832 0-1.168.431-2.085 1.293-2.75.87-.675 2.112-1.059 3.726-1.152l3.138-.189v-1.057c0-.541-.188-.956-.564-1.246-.376-.298-.917-.447-1.622-.447-1.27 0-2.049.4-2.339 1.199h-3.15c.11-1.199.674-2.147 1.693-2.844 1.026-.706 2.354-1.058 3.984-1.058 1.708 0 3.029.384 3.961 1.152.94.767 1.41 1.849 1.41 3.244v8.85h-3.314v-1.693h-.212c-.337.596-.838 1.062-1.504 1.4-.666.328-1.418.493-2.257.493zm9.806-.2V22.614h3.315v2.069h.212c.172-.659.564-1.203 1.175-1.634.611-.431 1.316-.647 2.116-.647.572 0 1.01.055 1.316.165v3.114c-.133-.054-.372-.101-.717-.14a6.49 6.49 0 00-.882-.071c-.932 0-1.684.263-2.256.788-.572.524-.858 1.238-.858 2.139v7.181h-3.42zm9.666 0V22.614h3.314v2.116h.212a3.435 3.435 0 011.351-1.752c.643-.43 1.387-.646 2.234-.646.9 0 1.657.211 2.268.634.619.416 1.058 1.003 1.316 1.764h.212a3.682 3.682 0 011.504-1.74c.698-.439 1.497-.658 2.398-.658 1.293 0 2.316.392 3.068 1.175.752.784 1.128 1.841 1.128 3.174v8.897h-3.42v-7.992c0-1.536-.721-2.304-2.163-2.304-.69 0-1.242.22-1.657.658-.415.439-.623 1.007-.623 1.704v7.934h-3.291v-8.133c0-.682-.188-1.211-.564-1.587-.376-.384-.901-.576-1.575-.576-.666 0-1.215.235-1.646.705-.43.47-.646 1.066-.646 1.787v7.804h-3.42zm26.167-2.374c.791 0 1.453-.224 1.986-.67.533-.447.8-1 .8-1.657v-.952l-2.622.164c-1.457.102-2.186.623-2.186 1.563 0 .478.184.858.553 1.14.376.275.865.412 1.469.412zm-1.129 2.574c-1.253 0-2.276-.357-3.067-1.07-.784-.713-1.176-1.657-1.176-2.832 0-1.168.431-2.085 1.293-2.75.87-.675 2.112-1.059 3.726-1.152l3.138-.189v-1.057c0-.541-.188-.956-.564-1.246-.376-.298-.917-.447-1.622-.447-1.27 0-2.049.4-2.339 1.199h-3.15c.11-1.199.674-2.147 1.693-2.844 1.026-.706 2.354-1.058 3.984-1.058 1.708 0 3.029.384 3.961 1.152.94.767 1.41 1.849 1.41 3.244v8.85h-3.314v-1.693h-.211c-.337.596-.839 1.062-1.505 1.4-.666.328-1.418.493-2.257.493zm21.278-8.592h-3.197c-.117-.635-.4-1.132-.846-1.493-.439-.368-1.015-.552-1.728-.552-.925 0-1.638.337-2.139 1.01-.494.675-.74 1.646-.74 2.916 0 1.285.246 2.272.74 2.961.501.682 1.215 1.023 2.14 1.023.704 0 1.276-.169 1.715-.505.447-.337.733-.823.858-1.458h3.197c-.141 1.465-.721 2.629-1.74 3.491-1.018.854-2.362 1.281-4.03 1.281-2.022 0-3.586-.588-4.69-1.763-1.098-1.183-1.646-2.86-1.646-5.03 0-2.155.548-3.816 1.645-4.984 1.097-1.167 2.66-1.751 4.69-1.751 1.693 0 3.04.435 4.043 1.304 1.011.87 1.587 2.053 1.728 3.55zm3.448 13.129c-.729 0-1.164-.012-1.305-.036v-2.762c.118.024.376.036.776.036.642 0 1.148-.114 1.516-.341.376-.228.635-.588.776-1.082l.117-.47-4.548-13.046h3.772l2.727 9.826h.212l2.727-9.826h3.62l-4.467 13.164c-.548 1.669-1.269 2.84-2.162 3.514-.886.682-2.139 1.023-3.761 1.023z" fill="#fff"/><mask id="a" style="mask-type:alpha" maskUnits="userSpaceOnUse" x="1" y="0" width="36" height="37"><path d="M26.083 33.024a.842.842 0 00.06-.031c4.543-2.264 7.944-6.863 8.749-11.89 2.147-.378 2.3-3.38.182-3.951a16.471 16.471 0 00-.18-1.488c1.877-1.07 1.043-3.946-1.118-3.786-1.982-4.642-6.288-8.229-11.212-9.337-.132-2.319-3.346-2.657-3.973-.414-.734.013-1.47.076-2.195.188-.626.096-.47 1.082.152.986a15.464 15.464 0 012.042-.176c.299 1.188 1.635 1.836 2.756 1.35a21.725 21.725 0 012.488 4.988c-.414.283-.72.731-.83 1.22-1.74.023-3.477.243-5.173.66a2.038 2.038 0 00-2.55-.717 31.129 31.129 0 00-5.226-3.52c.08-.377.05-.77-.085-1.13a15.281 15.281 0 014.158-2.098c.594-.194.312-1.152-.31-.95a16.276 16.276 0 00-4.42 2.23c-1.856-1.509-4.293.763-2.962 2.716-3.057 3.58-4.447 8.392-3.755 13.05C.837 21.97 1.61 24.765 3.72 24.708c1.946 4.837 6.397 8.584 11.494 9.676.206 2.247 3.313 2.546 3.958.377a16.342 16.342 0 006.912-1.737zm.238-1.26a31.302 31.302 0 00-1.059-5.74 2.045 2.045 0 00.938-1.9 31.19 31.19 0 007.067-3.468c.19.162.404.282.627.36-.741 4.45-3.642 8.55-7.573 10.749zM5.118 21.292a21.894 21.894 0 019.32-7.746c.638 1 2.056 1.22 2.973.47a29.883 29.883 0 015.61 8.656 2.05 2.05 0 00-.845 1.518 30.128 30.128 0 01-16.522-1.23 2.017 2.017 0 00-.536-1.669zM23.41 23.66a1.023 1.023 0 011.44-.129c.997.913-.252 2.396-1.322 1.57a1.023 1.023 0 01-.118-1.44zm11.942-3.892c-.364.432-1.01.49-1.44.129-.997-.913.252-2.396 1.321-1.57.43.362.483 1.008.119 1.44zm-1.28-2.61c-1.151.297-1.809 1.575-1.384 2.685a30.2 30.2 0 01-6.822 3.342 2.048 2.048 0 00-.622-.596 23.15 23.15 0 00.5-9.597c.463-.193.852-.57 1.06-1.026 1.771.29 3.5.8 5.152 1.518-.275 1.216.701 2.447 1.966 2.428.067.412.117.829.15 1.245zm-9.881-6.684a1.023 1.023 0 011.44-.13c.996.914-.253 2.397-1.322 1.57a1.023 1.023 0 01-.118-1.44zm10.401 2.634c.43.361.483 1.007.119 1.44-.92 1.005-2.392-.235-1.558-1.312a1.023 1.023 0 011.44-.128zm-14.707-9.7a1.023 1.023 0 01-.118-1.44c.919-1.004 2.391.235 1.558 1.312-.364.433-1.01.49-1.44.129zm2.251.455a2.03 2.03 0 00.217-.345c4.588 1.038 8.605 4.37 10.475 8.686a2.023 2.023 0 00-.432.382 22.724 22.724 0 00-5.413-1.602 2.032 2.032 0 00-2.213-1.863 22.727 22.727 0 00-2.634-5.258zm.89 7.82c.22.786.918 1.374 1.73 1.456.486 3.032.325 6.18-.468 9.16-.112-.005-.224 0-.336.013a30.875 30.875 0 00-5.94-9.114c.116-.29.162-.6.139-.905 1.6-.386 3.235-.59 4.875-.61zm-6.227-.016c.43.362.482 1.008.118 1.44-.919 1.006-2.391-.234-1.558-1.31a1.023 1.023 0 011.44-.13zM7.3 6.038a1.023 1.023 0 011.44-.129c.997.913-.252 2.396-1.321 1.57a1.023 1.023 0 01-.119-1.44zm-.1 2.478s1.372.723 2.413-.514c0 0 3.377 2.03 4.888 3.273a2.02 2.02 0 00-.376 1.317 22.889 22.889 0 00-9.856 8.17 2.02 2.02 0 00-.617-.092C3.04 16.342 4.767 11.407 7.2 8.516zM2.994 23.474a1.023 1.023 0 01-.119-1.44 1.023 1.023 0 011.44-.13c.424.358.47 1.024.118 1.441-.364.433-1.01.49-1.44.13zm5.928 6.719a15.242 15.242 0 01-4.24-5.768c.226-.134.438-.326.595-.54a31.123 31.123 0 0017.08 1.286c.138.298.35.56.612.759-.36.772-.767 1.527-1.213 2.25-.34.553.507 1.079.85.524.473-.767.904-1.57 1.285-2.39.14.02.28.025.42.016.546 1.938.898 3.93 1.049 5.936a15.347 15.347 0 01-6.169 1.496 2.013 2.013 0 00-.22-.558 23.197 23.197 0 001.894-2.054c.412-.505-.362-1.136-.774-.63a22.22 22.22 0 01-1.821 1.973c-1.021-.615-2.396-.177-2.885.907a15.24 15.24 0 01-6.463-3.207zm7.642 4.818a1.023 1.023 0 01-.118-1.44c.92-1.005 2.391.234 1.558 1.311-.364.433-1.01.49-1.44.129z" fill="#000"/></mask><g mask="url(#a)"><path fill="#43AEED" d="M-4.115-1.582H37.39V16.51H-4.115z"/></g></g><defs><clipPath id="clip0"><path fill="#fff" d="M0 0h116v41H0z"/></clipPath></defs></svg>