<svg width="16" height="16" fill="none" xmlns="http://www.w3.org/2000/svg"><rect width="16" height="16" rx="8" fill="#43AEED"/><path d="M7.226 9.54c0-.352.076-.68.228-.984a2.97 2.97 0 01.552-.78c.216-.216.432-.42.648-.612.216-.2.4-.416.552-.648.152-.24.228-.492.228-.756 0-.4-.14-.704-.42-.912-.272-.216-.628-.324-1.068-.324-.88 0-1.444.388-1.692 1.164l-.948-.528c.2-.56.54-.984 1.02-1.272a3.046 3.046 0 011.632-.444c.712 0 1.32.2 1.824.6.512.4.768.956.768 1.668 0 .336-.076.652-.228.948a3.04 3.04 0 01-.552.768 48.13 48.13 0 01-.648.636c-.216.2-.4.428-.552.684a1.49 1.49 0 00-.228.792H7.226zm.552 2.592a.752.752 0 01-.552-.228.752.752 0 01-.228-.552c0-.216.076-.4.228-.552a.752.752 0 01.552-.228c.224 0 .408.076.552.228a.752.752 0 01.228.552c0 .216-.076.4-.228.552a.727.727 0 01-.552.228z" fill="#fff"/></svg>