<svg width="83" height="31" fill="none" xmlns="http://www.w3.org/2000/svg"><g clip-path="url(#clip0)"><path d="M35.353 10.026c0 .943-.287 1.695-.861 2.255-.574.557-1.346.836-2.316.836-1.054 0-1.886-.34-2.497-1.022-.61-.684-.916-1.616-.916-2.794 0-1.16.307-2.085.921-2.773.615-.692 1.438-1.037 2.472-1.037.84 0 1.542.221 2.11.664.566.443.909 1.035 1.026 1.777h-1.294c-.13-.413-.355-.73-.674-.951-.316-.222-.705-.332-1.168-.332-.634 0-1.138.236-1.51.71-.37.472-.554 1.117-.554 1.932 0 .826.188 1.477.564 1.953.38.477.893.715 1.54.715.554 0 1.004-.154 1.35-.463.345-.309.523-.713.533-1.213l.005-.151h-1.747V9.115h3.016v.911zm6.14 1.772v1.138h-4.63V5.672h1.298v6.126h3.333zm4.295-6.307c1.054 0 1.888.342 2.502 1.027.617.684.926 1.612.926 2.783 0 1.172-.307 2.101-.921 2.79-.614.684-1.45 1.026-2.507 1.026-1.064 0-1.905-.342-2.522-1.027-.614-.684-.921-1.614-.921-2.789 0-1.17.308-2.099.926-2.783.62-.685 1.46-1.027 2.517-1.027zm0 1.152c-.648 0-1.163.24-1.546.72-.379.48-.568 1.126-.568 1.938 0 .816.188 1.463.563 1.943.38.48.896.72 1.55.72.645 0 1.155-.24 1.531-.72.38-.483.569-1.13.569-1.943 0-.812-.19-1.458-.569-1.938-.376-.48-.886-.72-1.53-.72zm8.024 6.293h-3.106V5.672h3.035c.688 0 1.228.163 1.621.488.393.322.59.764.59 1.324 0 .383-.125.723-.373 1.022a1.46 1.46 0 01-.922.534v.09c.49.047.888.232 1.194.554.305.319.458.715.458 1.188 0 .637-.224 1.14-.67 1.51-.443.37-1.052.554-1.827.554zm-1.807-6.232v2.023h1.253c.46 0 .809-.085 1.047-.256.242-.175.362-.426.362-.755 0-.32-.109-.567-.327-.745-.218-.178-.523-.267-.916-.267h-1.42zm0 5.2h1.51c.48 0 .844-.096 1.092-.287.248-.195.373-.477.373-.846 0-.362-.13-.637-.388-.825-.255-.188-.63-.282-1.128-.282h-1.46v2.24zm10.405 1.032l-.614-1.858h-2.673l-.625 1.858h-1.314l2.578-7.264h1.46l2.582 7.264H62.41zm-1.989-5.88l-.996 2.995h2.068l-.986-2.995h-.086zm9.262 4.742v1.138h-4.63V5.672h1.298v6.126h3.332zM1.647 14.653H6.71c1.25 0 2.262.387 3.036 1.161.78.768 1.169 1.78 1.169 3.036 0 1.245-.401 2.251-1.203 3.02-.802.767-1.844 1.151-3.128 1.151H4.187v3.768h-2.54V14.653zm2.54 2.086v4.222h1.842c.734 0 1.3-.18 1.698-.538.404-.365.606-.886.606-1.564 0-.685-.199-1.209-.597-1.573-.398-.365-.964-.547-1.699-.547h-1.85zm8.303 10.05V13.972h2.405v5.063h.152a2.5 2.5 0 011.101-1.245c.522-.302 1.125-.454 1.808-.454 1.038 0 1.842.303 2.414.909.578.605.866 1.463.866 2.573v5.97H18.79v-5.39c0-.639-.157-1.124-.47-1.455-.31-.33-.758-.496-1.346-.496-.611 0-1.105.185-1.48.555-.37.37-.556.858-.556 1.463v5.324H12.49zm13.862-1.699c.567 0 1.04-.16 1.421-.48.382-.319.572-.714.572-1.185v-.681l-1.875.117c-1.043.073-1.564.446-1.564 1.12 0 .341.132.613.395.815.27.196.62.294 1.051.294zm-.807 1.842c-.897 0-1.629-.255-2.195-.765-.56-.51-.841-1.186-.841-2.027 0-.835.308-1.492.925-1.968.622-.482 1.511-.757 2.666-.824l2.245-.135v-.757c0-.386-.134-.684-.403-.891-.27-.213-.656-.32-1.16-.32-.91 0-1.467.286-1.674.858h-2.254c.078-.858.482-1.536 1.21-2.035.735-.505 1.686-.757 2.852-.757 1.222 0 2.167.275 2.834.824.673.55 1.009 1.323 1.009 2.321v6.333h-2.372v-1.211h-.15c-.242.426-.6.76-1.077 1-.477.236-1.015.354-1.615.354zm7.016-.143v-9.276h2.372v1.48h.151c.124-.47.404-.86.841-1.169a2.561 2.561 0 011.514-.463c.41 0 .723.04.942.118v2.229c-.095-.04-.266-.073-.513-.101a4.648 4.648 0 00-.63-.05c-.668 0-1.206.187-1.615.563-.41.376-.614.886-.614 1.53v5.139H32.56zm6.916 0v-9.276h2.372v1.514H42c.19-.533.513-.95.967-1.253.46-.309.992-.463 1.598-.463.645 0 1.186.151 1.623.454.443.297.757.718.942 1.262h.151a2.634 2.634 0 011.077-1.245c.499-.314 1.07-.471 1.715-.471.925 0 1.657.28 2.195.841.539.56.808 1.318.808 2.27v6.367h-2.447V21.07c0-1.099-.516-1.648-1.548-1.648-.493 0-.889.157-1.186.47-.297.315-.446.721-.446 1.22v5.677h-2.354v-5.82c0-.487-.135-.866-.404-1.135-.269-.275-.645-.412-1.127-.412-.476 0-.869.168-1.177.505-.309.336-.463.762-.463 1.278v5.584h-2.447zM58.2 25.09c.566 0 1.04-.16 1.421-.48.381-.319.572-.714.572-1.185v-.681l-1.875.117c-1.043.073-1.564.446-1.564 1.12 0 .341.131.613.395.815.269.196.62.294 1.051.294zm-.807 1.842c-.897 0-1.629-.255-2.195-.765-.561-.51-.841-1.186-.841-2.027 0-.835.308-1.492.925-1.968.622-.482 1.51-.757 2.666-.824l2.245-.135v-.757c0-.386-.134-.684-.404-.891-.269-.213-.656-.32-1.16-.32-.908 0-1.466.286-1.674.858h-2.253c.078-.858.482-1.536 1.21-2.035.735-.505 1.685-.757 2.852-.757 1.222 0 2.166.275 2.834.824.672.55 1.009 1.323 1.009 2.321v6.333h-2.372v-1.211h-.151c-.241.426-.6.76-1.077 1-.476.236-1.014.354-1.614.354zm15.224-6.148H70.33c-.084-.454-.286-.81-.606-1.068-.314-.263-.726-.395-1.236-.395-.662 0-1.172.241-1.53.723-.354.482-.53 1.178-.53 2.086 0 .92.176 1.626.53 2.12.358.487.868.73 1.53.73.505 0 .914-.12 1.228-.36.32-.242.524-.59.614-1.044h2.287c-.1 1.049-.516 1.881-1.245 2.498-.728.611-1.69.917-2.884.917-1.447 0-2.565-.42-3.356-1.262-.785-.846-1.177-2.046-1.177-3.6 0-1.54.392-2.73 1.177-3.565s1.904-1.253 3.356-1.253c1.211 0 2.175.311 2.893.933.723.623 1.135 1.47 1.236 2.54zm2.467 9.394c-.522 0-.833-.008-.934-.025v-1.976c.085.016.27.025.555.025.46 0 .822-.082 1.085-.244.27-.163.454-.42.555-.774l.085-.336-3.255-9.335h2.7l1.95 7.03h.152l1.951-7.03h2.59l-3.195 9.419c-.393 1.194-.909 2.032-1.548 2.515-.633.487-1.53.731-2.691.731z" fill="#fff"/><mask id="a" style="mask-type:alpha" maskUnits="userSpaceOnUse" x="-4" y="-4" width="34" height="35"><path d="M18.663 24.418a.355.355 0 00.043-.022c3.25-1.62 5.684-4.91 6.26-8.507 1.536-.27 1.645-2.419.13-2.827-.026-.357-.07-.713-.129-1.065 1.343-.766.747-2.824-.8-2.709-1.418-3.321-4.499-5.888-8.022-6.68C16.05.947 13.75.705 13.302 2.31c-.525.01-1.052.054-1.57.134-.448.07-.336.775.108.706.483-.074.973-.116 1.461-.126.214.85 1.17 1.314 1.973.966a15.546 15.546 0 011.78 3.57 1.47 1.47 0 00-.595.872 16.43 16.43 0 00-3.7.472 1.458 1.458 0 00-1.825-.513 22.274 22.274 0 00-3.74-2.518c.057-.27.036-.552-.06-.81a10.93 10.93 0 012.974-1.5c.425-.139.224-.824-.22-.68A11.645 11.645 0 006.723 4.48c-1.328-1.08-3.072.546-2.119 1.943a11.796 11.796 0 00-2.687 9.337c-1.32.75-.767 2.75.743 2.708 1.392 3.461 4.577 6.142 8.224 6.924.148 1.608 2.37 1.821 2.832.27a11.693 11.693 0 004.946-1.244zm.17-.9a22.41 22.41 0 00-.757-4.109 1.46 1.46 0 00.67-1.358 22.312 22.312 0 005.057-2.482c.136.116.29.201.449.258-.53 3.184-2.607 6.117-5.419 7.69zM3.662 16.022a15.665 15.665 0 016.668-5.542c.457.716 1.471.872 2.128.337a21.381 21.381 0 014.014 6.192 1.47 1.47 0 00-.605 1.087c-3.966.816-8.04.513-11.821-.88a1.443 1.443 0 00-.384-1.194zm13.089 1.695a.732.732 0 011.03-.092c.713.653-.18 1.714-.945 1.122a.732.732 0 01-.085-1.03zm8.544-2.786a.732.732 0 01-1.03.093c-.713-.653.18-1.715.946-1.123a.732.732 0 01.084 1.03zm-.915-1.867a1.466 1.466 0 00-.99 1.921 21.618 21.618 0 01-4.882 2.392 1.467 1.467 0 00-.445-.427 16.58 16.58 0 00.358-6.866c.331-.139.61-.408.759-.735a15.56 15.56 0 013.686 1.086c-.197.87.502 1.751 1.407 1.738.047.295.084.593.107.89zm-7.07-4.782a.732.732 0 011.03-.093c.713.654-.18 1.715-.946 1.123a.732.732 0 01-.084-1.03zm7.442 1.884a.732.732 0 01.085 1.03c-.658.72-1.711-.167-1.115-.938a.732.732 0 011.03-.092zm-10.523-6.94a.732.732 0 01-.085-1.03c.658-.72 1.711.168 1.115.938a.732.732 0 01-1.03.093zm1.61.325c.061-.078.113-.16.156-.246 3.282.742 6.157 3.127 7.495 6.215a1.449 1.449 0 00-.31.273 16.26 16.26 0 00-3.872-1.147 1.454 1.454 0 00-1.584-1.332 16.26 16.26 0 00-1.885-3.763zm.637 5.595a1.45 1.45 0 001.238 1.043c.348 2.17.233 4.422-.335 6.554-.08-.004-.16 0-.24.009a22.094 22.094 0 00-4.25-6.52 1.45 1.45 0 00.099-.649 15.711 15.711 0 013.488-.437zm-4.455-.01a.732.732 0 01.084 1.03c-.657.72-1.71-.168-1.114-.938a.732.732 0 011.03-.092zM5.224 5.11a.732.732 0 011.03-.093c.714.654-.18 1.715-.945 1.123a.732.732 0 01-.085-1.03zm-.072 1.773s.982.517 1.727-.368c0 0 2.416 1.452 3.497 2.342-.202.282-.29.616-.269.942a16.376 16.376 0 00-7.052 5.846 1.443 1.443 0 00-.441-.066c-.439-3.097.797-6.628 2.538-8.696zm-3.01 10.702a.732.732 0 01-.084-1.03.732.732 0 011.03-.093.745.745 0 01.085 1.031.732.732 0 01-1.03.092zm4.242 4.808a10.907 10.907 0 01-3.034-4.127c.162-.096.314-.234.427-.386a22.269 22.269 0 0012.22.92c.1.213.25.4.438.542a15.783 15.783 0 01-.867 1.61c-.244.396.362.772.607.375a16.48 16.48 0 00.92-1.71c.1.015.2.018.3.012a21.68 21.68 0 01.751 4.247 10.983 10.983 0 01-4.414 1.07 1.443 1.443 0 00-.158-.399 16.36 16.36 0 001.356-1.47c.295-.36-.259-.812-.554-.45-.403.493-.84.967-1.303 1.412-.73-.44-1.714-.127-2.064.649a10.904 10.904 0 01-4.625-2.295zm5.469 3.447a.732.732 0 01-.085-1.03c.658-.72 1.71.168 1.115.938a.732.732 0 01-1.03.092z" fill="#000"/></mask><g mask="url(#a)"><path fill="#fff" d="M-2.944-.343h29.697v12.945H-2.944z"/></g></g><defs><clipPath id="clip0"><path fill="#fff" transform="translate(0 .651)" d="M0 0h83v29.697H0z"/></clipPath></defs></svg>