<svg width="110" height="40" fill="none" xmlns="http://www.w3.org/2000/svg"><g clip-path="url(#clip0_1247:1923)"><path d="M46.927 12.548c0 1.239-.377 2.226-1.13 2.962-.754.731-1.768 1.097-3.041 1.097-1.384 0-2.477-.447-3.28-1.342-.801-.899-1.203-2.122-1.203-3.669 0-1.525.404-2.739 1.21-3.642.807-.908 1.889-1.362 3.246-1.362 1.102 0 2.025.29 2.77.872.745.582 1.194 1.36 1.349 2.334h-1.7c-.171-.542-.467-.958-.885-1.25-.414-.29-.926-.436-1.534-.436-.833 0-1.494.311-1.983.932-.485.622-.727 1.468-.727 2.539 0 1.084.247 1.94.74 2.565.498.626 1.172.939 2.023.939.727 0 1.318-.203 1.772-.608.454-.406.687-.937.7-1.594l.007-.198h-2.294v-1.335h3.96v1.196zm8.065 2.327v1.494H48.91V6.83h1.706v8.046h4.376zm5.639-8.283c1.384 0 2.479.45 3.285 1.348.811.9 1.217 2.118 1.217 3.656 0 1.538-.403 2.76-1.21 3.662-.806.9-1.904 1.35-3.292 1.35-1.397 0-2.501-.45-3.312-1.35-.806-.898-1.21-2.12-1.21-3.662 0-1.538.406-2.756 1.217-3.656.815-.899 1.917-1.348 3.305-1.348zm0 1.514c-.85 0-1.527.315-2.03.945-.498.63-.747 1.479-.747 2.545 0 1.071.247 1.922.74 2.552.499.63 1.178.945 2.037.945.846 0 1.516-.315 2.01-.945.498-.635.747-1.485.747-2.552 0-1.066-.25-1.915-.747-2.545-.494-.63-1.164-.945-2.01-.945zm10.537 8.263H67.09V6.83h3.986c.903 0 1.613.215 2.129.642.515.423.773 1.003.773 1.739 0 .502-.163.95-.49 1.342a1.91 1.91 0 01-1.209.7v.12c.644.061 1.166.303 1.567.727.4.418.601.938.601 1.56 0 .837-.293 1.498-.879 1.983-.582.485-1.382.727-2.4.727zm-2.373-8.184v2.658h1.646c.604 0 1.062-.113 1.375-.338.318-.229.476-.56.476-.991 0-.419-.143-.745-.43-.979-.286-.233-.687-.35-1.203-.35h-1.864zm0 6.829h1.983c.63 0 1.109-.126 1.435-.377.326-.255.49-.626.49-1.11 0-.476-.17-.838-.51-1.085-.335-.246-.828-.37-1.48-.37h-1.918v2.942zm13.665 1.355l-.807-2.44h-3.51l-.82 2.44h-1.725l3.384-9.54H80.9l3.392 9.54H82.46zm-2.612-7.721L78.54 12.58h2.717l-1.295-3.933h-.113zm12.164 6.227v1.494H85.93V6.83h1.706v8.046h4.376z" fill="#43AEED"/><path d="M2.663 18.432h6.649c1.642 0 2.97.508 3.987 1.524 1.023 1.009 1.535 2.338 1.535 3.987 0 1.635-.527 2.956-1.58 3.965-1.052 1.009-2.422 1.513-4.108 1.513H5.998v4.948H2.663V18.432zM6 21.172v5.543h2.418c.965 0 1.708-.235 2.231-.706.53-.48.795-1.164.795-2.055 0-.898-.261-1.586-.784-2.065-.523-.479-1.266-.718-2.23-.718H6zm10.904 13.197V17.538h3.158v6.648h.2c.279-.692.761-1.237 1.446-1.634.685-.398 1.476-.597 2.374-.597 1.363 0 2.42.398 3.17 1.193.759.795 1.138 1.922 1.138 3.38v7.841h-3.214v-7.08c0-.839-.206-1.476-.619-1.91-.405-.434-.994-.652-1.767-.652-.802 0-1.45.243-1.944.73-.485.485-.728 1.126-.728 1.921v6.991h-3.214zm18.204-2.23c.744 0 1.366-.21 1.867-.63.5-.42.75-.94.75-1.558v-.894l-2.462.154c-1.37.096-2.054.586-2.054 1.47 0 .448.173.805.519 1.07.353.258.813.387 1.38.387zm-1.06 2.418c-1.178 0-2.139-.335-2.883-1.005-.736-.67-1.104-1.558-1.104-2.662 0-1.097.405-1.958 1.215-2.584.817-.634 1.984-.994 3.5-1.083l2.95-.176v-.994c0-.508-.177-.899-.53-1.171-.354-.28-.862-.42-1.525-.42-1.192 0-1.925.376-2.197 1.127h-2.96c.103-1.127.633-2.018 1.59-2.673.965-.663 2.213-.994 3.744-.994 1.605 0 2.846.36 3.722 1.082.884.722 1.325 1.738 1.325 3.049v8.316H37.78v-1.59h-.199c-.317.56-.788.997-1.414 1.314-.625.31-1.332.464-2.12.464zm9.214-.188V22.187h3.115v1.944h.199c.162-.619.53-1.13 1.104-1.535.574-.405 1.237-.608 1.988-.608.538 0 .95.052 1.237.155v2.927c-.125-.052-.35-.096-.674-.133a6.092 6.092 0 00-.828-.066c-.876 0-1.583.247-2.12.74-.538.493-.807 1.163-.807 2.01v6.748h-3.214zm9.082 0V22.187h3.115v1.988h.199c.25-.7.673-1.248 1.27-1.645.603-.405 1.303-.608 2.098-.608.847 0 1.557.199 2.132.596.581.39.994.943 1.237 1.657h.198a3.46 3.46 0 011.414-1.634c.655-.413 1.406-.619 2.253-.619 1.215 0 2.176.368 2.883 1.105.706.736 1.06 1.73 1.06 2.982v8.36h-3.214v-7.51c0-1.443-.677-2.165-2.032-2.165-.648 0-1.167.206-1.557.619-.39.412-.586.946-.586 1.601v7.455h-3.092v-7.643c0-.64-.177-1.137-.53-1.49-.354-.361-.847-.542-1.48-.542-.626 0-1.141.221-1.546.663-.405.442-.608 1.001-.608 1.679v7.333h-3.214zm24.588-2.23c.744 0 1.366-.21 1.867-.63.5-.42.75-.94.75-1.558v-.894l-2.462.154c-1.37.096-2.054.586-2.054 1.47 0 .448.173.805.519 1.07.353.258.813.387 1.38.387zm-1.06 2.418c-1.178 0-2.139-.335-2.882-1.005-.737-.67-1.105-1.558-1.105-2.662 0-1.097.405-1.958 1.215-2.584.817-.634 1.984-.994 3.501-1.083l2.949-.176v-.994c0-.508-.177-.899-.53-1.171-.354-.28-.862-.42-1.524-.42-1.193 0-1.926.376-2.198 1.127h-2.96c.103-1.127.633-2.018 1.59-2.673.965-.663 2.213-.994 3.744-.994 1.605 0 2.846.36 3.722 1.082.884.722 1.326 1.738 1.326 3.049v8.316h-3.115v-1.59h-.199c-.316.56-.788.997-1.413 1.314-.626.31-1.333.464-2.12.464zm19.994-8.074H92.86c-.11-.596-.376-1.064-.796-1.402-.412-.346-.953-.52-1.623-.52-.869 0-1.539.317-2.01.95-.464.634-.696 1.547-.696 2.74 0 1.207.232 2.135.696 2.783.471.64 1.141.96 2.01.96.663 0 1.2-.158 1.613-.474.42-.317.688-.773.806-1.37h3.004c-.133 1.377-.678 2.47-1.635 3.28-.957.803-2.22 1.204-3.788 1.204-1.9 0-3.368-.552-4.407-1.657-1.03-1.111-1.546-2.687-1.546-4.726 0-2.025.515-3.586 1.546-4.683 1.031-1.097 2.5-1.646 4.407-1.646 1.59 0 2.857.409 3.8 1.226.949.817 1.49 1.93 1.623 3.335zm3.24 12.337c-.686 0-1.094-.011-1.227-.033V36.19c.11.022.354.033.73.033.603 0 1.078-.106 1.424-.32.353-.213.596-.552.729-1.016l.11-.442-4.274-12.259h3.545l2.563 9.233h.198l2.563-9.233h3.401l-4.196 12.37c-.516 1.568-1.193 2.669-2.033 3.302-.832.64-2.01.96-3.534.96z" fill="#596069"/><mask id="a" style="mask-type:alpha" maskUnits="userSpaceOnUse" x="2" y="1" width="33" height="34"><path d="M25.01 31.581a.454.454 0 00.056-.03c4.268-2.126 7.464-6.448 8.22-11.17 2.018-.356 2.161-3.178.172-3.714a15.507 15.507 0 00-.17-1.398c1.764-1.006.98-3.708-1.05-3.557-1.863-4.363-5.909-7.733-10.536-8.774-.124-2.18-3.144-2.497-3.733-.39a15.47 15.47 0 00-2.062.177c-.588.09-.441 1.017.142.927a14.533 14.533 0 011.92-.165c.28 1.116 1.536 1.725 2.589 1.268a20.415 20.415 0 012.338 4.687 1.93 1.93 0 00-.78 1.147c-1.636.02-3.267.228-4.86.619a1.915 1.915 0 00-2.397-.674 29.252 29.252 0 00-4.91-3.306 1.912 1.912 0 00-.081-1.063 14.357 14.357 0 013.907-1.971c.558-.182.293-1.082-.29-.892A15.294 15.294 0 009.33 5.397c-1.743-1.418-4.033.717-2.782 2.552-2.873 3.363-4.18 7.885-3.529 12.262-1.732.984-1.007 3.61.976 3.556 1.828 4.545 6.01 8.066 10.8 9.093.194 2.111 3.113 2.392 3.719.354a15.358 15.358 0 006.495-1.633zm.223-1.183a29.422 29.422 0 00-.995-5.395c.6-.378.945-1.079.88-1.784a29.305 29.305 0 006.642-3.259c.179.152.38.264.589.338-.697 4.181-3.423 8.034-7.116 10.1zM5.309 20.557a20.572 20.572 0 018.757-7.28c.6.94 1.932 1.146 2.794.443a28.078 28.078 0 015.273 8.133c-.46.327-.759.863-.795 1.426a28.311 28.311 0 01-15.525-1.154 1.896 1.896 0 00-.504-1.569zm17.19 2.225a.961.961 0 011.352-.121c.937.857-.237 2.251-1.241 1.474a.961.961 0 01-.112-1.353zm11.22-3.658a.961.961 0 01-1.352.121c-.937-.858.236-2.251 1.241-1.475a.96.96 0 01.111 1.354zm-1.202-2.453c-1.082.28-1.7 1.48-1.3 2.524a28.371 28.371 0 01-6.411 3.14 1.926 1.926 0 00-.585-.56 21.75 21.75 0 00.47-9.018c.436-.181.8-.535.997-.964a20.37 20.37 0 014.84 1.426c-.258 1.144.66 2.3 1.848 2.282.063.387.11.778.141 1.17zm-9.285-6.28a.961.961 0 011.353-.121c.937.858-.237 2.251-1.242 1.474a.961.961 0 01-.111-1.353zm9.773 2.475a.96.96 0 01.112 1.353c-.864.945-2.247-.22-1.464-1.232a.961.961 0 011.352-.121zM19.186 3.752a.961.961 0 01-.111-1.353c.864-.944 2.247.22 1.464 1.232a.961.961 0 01-1.353.121zm2.115.427a1.91 1.91 0 00.204-.324c4.311.975 8.086 4.106 9.843 8.162a1.903 1.903 0 00-.406.359 21.358 21.358 0 00-5.086-1.506 1.91 1.91 0 00-2.08-1.75 21.354 21.354 0 00-2.475-4.941zm.837 7.348a1.9 1.9 0 001.625 1.368 20.81 20.81 0 01-.44 8.607c-.105-.004-.21 0-.315.012a29.013 29.013 0 00-5.582-8.563c.11-.273.152-.564.13-.85a20.636 20.636 0 014.582-.575zm-5.852-.014a.96.96 0 01.111 1.353c-.863.944-2.247-.22-1.464-1.232a.961.961 0 011.353-.122zm-8.925-5.29a.961.961 0 011.352-.121c.937.858-.236 2.251-1.241 1.474a.961.961 0 01-.111-1.353zm-.095 2.328s1.29.68 2.268-.482c0 0 3.172 1.907 4.593 3.075-.267.37-.382.809-.354 1.237a21.507 21.507 0 00-9.26 7.678 1.896 1.896 0 00-.58-.087c-.576-4.067 1.046-8.704 3.333-11.42zM3.314 22.608a.961.961 0 01-.111-1.354.961.961 0 011.352-.12.978.978 0 01.112 1.353.961.961 0 01-1.353.12zm5.57 6.313a14.322 14.322 0 01-3.984-5.42 1.95 1.95 0 00.56-.507 29.244 29.244 0 0016.049 1.208c.13.28.328.527.575.713-.339.726-.72 1.436-1.14 2.114-.32.52.477 1.014.799.493.444-.72.85-1.475 1.208-2.246.13.019.262.024.394.015.513 1.821.843 3.694.985 5.578a14.423 14.423 0 01-5.796 1.406 1.89 1.89 0 00-.207-.524 21.774 21.774 0 001.78-1.93c.387-.475-.34-1.068-.727-.593a20.863 20.863 0 01-1.712 1.855c-.96-.578-2.251-.166-2.71.852a14.32 14.32 0 01-6.074-3.014zm7.182 4.527a.961.961 0 01-.112-1.353c.864-.944 2.247.22 1.464 1.232a.961.961 0 01-1.352.121z" fill="#000"/></mask><g mask="url(#a)"><path fill="#43AEED" d="M-3.367-.937h39v17h-39z"/></g></g><defs><clipPath id="clip0_1247:1923"><path fill="#fff" transform="translate(.5 .37)" d="M0 0h109v39H0z"/></clipPath></defs></svg>