<svg width="115" height="49" fill="none" xmlns="http://www.w3.org/2000/svg"><path d="M40.672 41.37h-1.368l-3.624-4.033v4.032h-1.116v-8.4h1.116v3.792l3.504-3.792h1.368l-3.708 4.08 3.828 4.32zm5.41-.757c-.615.608-1.363.912-2.243.912-.88 0-1.628-.304-2.244-.912-.608-.608-.912-1.356-.912-2.244 0-.888.304-1.636.912-2.244.616-.608 1.364-.912 2.244-.912.88 0 1.628.304 2.244.912.616.608.924 1.356.924 2.244 0 .888-.308 1.636-.924 2.244zm-2.243-.108c.6 0 1.104-.204 1.512-.612.408-.408.612-.916.612-1.524s-.204-1.116-.612-1.524c-.408-.408-.912-.612-1.512-.612a2.04 2.04 0 00-1.5.612c-.408.408-.612.916-.612 1.524s.204 1.116.612 1.524a2.04 2.04 0 001.5.612zm7.71-5.292c.84 0 1.556.308 2.148.924.592.608.888 1.352.888 2.232 0 .88-.296 1.628-.888 2.244-.592.608-1.308.912-2.148.912-.992 0-1.748-.396-2.268-1.188v3.432h-1.044v-8.4h1.044v1.032c.52-.792 1.276-1.188 2.268-1.188zm-.132 5.304c.6 0 1.104-.204 1.512-.612.408-.416.612-.928.612-1.536s-.204-1.116-.612-1.524a2.034 2.034 0 00-1.512-.624c-.608 0-1.116.208-1.524.624-.408.408-.612.916-.612 1.524s.204 1.12.612 1.536c.408.408.916.612 1.524.612zm7.42-2.22c.664.272.996.748.996 1.428 0 .504-.2.932-.6 1.284-.4.344-.968.516-1.704.516-1.2 0-2.004-.48-2.412-1.44l.876-.516c.232.656.748.984 1.548.984.4 0 .708-.084.924-.252a.819.819 0 00.336-.672.728.728 0 00-.276-.588c-.176-.152-.416-.228-.72-.228h-.876v-.948h.648c.304 0 .54-.072.708-.216.168-.152.252-.356.252-.612s-.1-.464-.3-.624c-.192-.16-.46-.24-.804-.24-.672 0-1.128.284-1.368.852l-.852-.492c.424-.88 1.164-1.32 2.22-1.32.656 0 1.172.168 1.548.504.384.336.576.748.576 1.236 0 .608-.24 1.056-.72 1.344zm6.483-2.928h.84v6h-1.032v-4.212l-3.324 4.212h-.84v-6h1.032v4.212l3.324-4.212zm6.581 0h1.044v6h-1.044v-2.508h-3.108v2.508h-1.044v-6h1.044v2.496h3.108V35.37zm7.601 0h1.044v6h-1.044v-1.032c-.52.792-1.276 1.188-2.268 1.188-.84 0-1.556-.304-2.148-.912-.592-.616-.888-1.364-.888-2.244 0-.88.296-1.624.888-2.232.592-.616 1.308-.924 2.148-.924.992 0 1.748.396 2.268 1.188V35.37zm-2.136 5.148c.608 0 1.116-.204 1.524-.612.408-.416.612-.928.612-1.536s-.204-1.116-.612-1.524c-.408-.416-.916-.624-1.524-.624-.6 0-1.104.208-1.512.624-.408.408-.612.916-.612 1.524s.204 1.12.612 1.536c.408.408.912.612 1.512.612z" fill="#8B98B2"/><g clip-path="url(#clip0_1247:1891)" stroke="#8B98B2" stroke-width="2"><path d="M51.42 14.437l-1.956-8.802h16.939l-2.643 9.25H51.52l-.1-.448zm1.268 7.479c-.611 0-1.11-.498-1.11-1.11 0-.61.499-1.108 1.11-1.108.61 0 1.11.498 1.11 1.109 0 .61-.5 1.11-1.11 1.11zm9.89 0c-.61 0-1.11-.498-1.11-1.11 0-.61.5-1.108 1.11-1.108.611 0 1.11.498 1.11 1.109 0 .61-.499 1.11-1.11 1.11z"/></g><circle cx="69.5" cy="12.369" r="8" fill="#43AEED"/><path d="M67.257 15.37v-.865l2.343-2.39c.57-.57.854-1.063.854-1.479 0-.326-.1-.579-.298-.758-.192-.186-.438-.278-.739-.278-.563 0-.98.278-1.248.835l-.931-.547c.211-.448.509-.788.893-1.018.384-.23.81-.346 1.276-.346a2.22 2.22 0 011.517.557c.423.371.634.877.634 1.517 0 .685-.38 1.414-1.143 2.189L68.9 14.303h2.784v1.066h-4.426z" fill="#fff"/><defs><clipPath id="clip0_1247:1891"><path fill="#fff" transform="translate(43.5 .37)" d="M0 0h24v24H0z"/></clipPath></defs></svg>