<svg width="16" height="17" fill="none" xmlns="http://www.w3.org/2000/svg"><path opacity=".5" fill-rule="evenodd" clip-rule="evenodd" d="M16 14.745a.387.387 0 00-.111-.29l-1.53-1.507a.406.406 0 00-.297-.109h-.52a7.75 7.75 0 001.392-2.284 7.14 7.14 0 00.501-2.646c0-1.377-.346-2.64-1.039-3.788a7.71 7.71 0 00-2.801-2.737C10.42.707 9.128.37 7.718.37c-1.41 0-2.703.338-3.878 1.015a7.71 7.71 0 00-2.8 2.736A7.195 7.195 0 000 7.909a7.19 7.19 0 001.039 3.788 7.71 7.71 0 002.801 2.737c1.175.677 2.468 1.015 3.878 1.015a7.6 7.6 0 002.708-.49 8.01 8.01 0 002.338-1.359v.508c0 .097.037.193.111.29l1.53 1.47a.355.355 0 00.296.146.466.466 0 00.334-.145l.854-.798a.522.522 0 00.111-.326zm-5.314-1.815c-.915.52-1.905.78-2.968.78a5.912 5.912 0 01-2.969-.78 5.827 5.827 0 01-2.17-2.12 5.574 5.574 0 01-.798-2.9c0-1.04.266-2.007.798-2.9a5.829 5.829 0 012.17-2.121 5.913 5.913 0 012.969-.78c1.063 0 2.053.26 2.968.78a5.828 5.828 0 012.17 2.12c.532.894.798 1.861.798 2.9 0 1.04-.266 2.006-.797 2.9a5.827 5.827 0 01-2.171 2.12z" fill="#8B98B2"/></svg>