<svg width="21" height="20" fill="none" xmlns="http://www.w3.org/2000/svg"><g clip-path="url(#clip0)" stroke="#fff" stroke-width="1.075"><path d="M17.319 12.076l-.001.002a.027.027 0 01-.027.02H7.049a1.105 1.105 0 000 2.208H17.29a.03.03 0 01.029.03.03.03 0 01-.03.029H7.05a1.166 1.166 0 01-1.164-1.164c0-.474.288-.886.703-1.066l.406-.176-.096-.433L4.85 2.314l-.094-.421H1.342a.03.03 0 01-.03-.03.03.03 0 01.03-.029H4.78a.03.03 0 01.029.023h0l.405 1.824.094.42h14.25a.03.03 0 01.023.013.029.029 0 01.004.025s0 0 0 0l-2.267 7.937zm-9.136 5.69a1.165 1.165 0 01-1.164-1.163c0-.64.522-1.163 1.164-1.163.64 0 1.163.522 1.163 1.163 0 .64-.523 1.163-1.163 1.163zm7.974 0a1.165 1.165 0 01-1.163-1.163c0-.64.522-1.163 1.163-1.163.64 0 1.163.522 1.163 1.163s-.522 1.163-1.163 1.163z"/></g><defs><clipPath id="clip0"><path fill="#fff" transform="translate(.775 .125)" d="M0 0h19.35v19.35H0z"/></clipPath></defs></svg>