<svg width="21" height="21" fill="none" xmlns="http://www.w3.org/2000/svg"><path d="M15.256 9.09V5.118a.46.46 0 00-.127-.302L10.673.135a.444.444 0 00-.32-.135H3.29A2.354 2.354 0 00.944 2.368v13.358a2.339 2.339 0 002.346 2.35h5.576A6.02 6.02 0 0014.02 21c3.318 0 6.027-2.696 6.027-6.018.005-2.902-2.079-5.327-4.792-5.891zM10.79 1.537l2.99 3.147h-1.94c-.577 0-1.05-.477-1.05-1.055V1.536zm-7.5 15.664a1.467 1.467 0 01-1.471-1.475V2.368c0-.823.652-1.493 1.47-1.493h6.627v2.753a1.93 1.93 0 001.926 1.93h2.538v3.419c-.13-.005-.236-.018-.35-.018a6.107 6.107 0 00-3.991 1.506H4.48a.439.439 0 00-.438.438c0 .24.197.437.438.437h4.745c-.311.438-.57.876-.77 1.357H4.48a.439.439 0 00-.438.438c0 .24.197.438.438.438h3.69c-.11.437-.167.923-.167 1.409 0 .788.154 1.567.43 2.223H3.29v-.004zm10.736 2.928a5.148 5.148 0 01-5.143-5.143 5.145 5.145 0 015.143-5.143 5.145 5.145 0 015.143 5.143 5.148 5.148 0 01-5.143 5.143z" fill="#fff"/><path d="M4.48 9.148h4.433a.439.439 0 000-.875H4.48a.439.439 0 00-.438.437c0 .24.197.438.438.438zm11.787 5.746l-1.8 1.94v-4.78a.439.439 0 00-.437-.438.439.439 0 00-.438.438v4.78l-1.812-1.94a.441.441 0 00-.621-.021.436.436 0 00-.022.617l2.56 2.753a.44.44 0 00.32.14.44.44 0 00.32-.14L16.9 15.49a.436.436 0 10-.634-.596z" fill="#fff"/></svg>