<svg width="85" height="30" fill="none" xmlns="http://www.w3.org/2000/svg"><path d="M10.597 5.81v16.338h2.868V15.86h4.612c3.305 0 5.301-1.973 5.301-5.071 0-3.42-2.317-4.98-5.69-4.98h-7.091zm2.868 2.386h3.74c1.813 0 3.374.55 3.374 2.662 0 1.928-1.262 2.685-3.121 2.685h-3.993V8.196z" fill="#fff"/><path d="M7.964 1.454c4.797.685 12.735 8.414 15.933 12.011v-.514C11.22-1.783 3.677-.773 2.138.958.082 3.271-.26 9.335 8.992 18.758c9.251 9.424 14.905 11.155 18.16 10.299 2.605-.686 2.799-4.17 2.57-5.826h-.856c0 1.2-.514 3.237-1.542 3.923-1.028.685-7.196 1.028-15.42-7.368C3.68 11.391 2.481 6.775 2.481 5.223c0-1.028-.514-4.626 5.483-3.769zm26.802.328V3.4H32.16v7.048h-1.912V3.401h-2.605v-1.62h7.122zm4.922-.207c1.266 0 2.288.422 3.067 1.266.788.836 1.181 1.932 1.181 3.287s-.393 2.45-1.18 3.287c-.78.828-1.806 1.241-3.08 1.241-1.283 0-2.318-.414-3.105-1.241-.787-.836-1.18-1.932-1.18-3.287 0-1.372.389-2.471 1.168-3.3.787-.835 1.83-1.253 3.129-1.253zm-.025 1.558c-.714 0-1.286.268-1.716.804-.422.535-.633 1.253-.633 2.154 0 .934.21 1.664.633 2.192.422.527 1.002.795 1.74.803.723 0 1.291-.268 1.705-.803.414-.536.62-1.267.62-2.192 0-.909-.21-1.627-.632-2.154-.422-.536-.994-.804-1.717-.804zm5.592-1.351h3.737c.974 0 1.745.235 2.313.706.576.463.864 1.156.864 2.082 0 .909-.284 1.598-.852 2.07-.568.462-1.31.693-2.227.693h-1.948v3.116h-1.887V1.782zm1.887 1.558v2.496h1.692c.99 0 1.485-.414 1.485-1.242 0-.836-.491-1.254-1.473-1.254h-1.704z" fill="#fff"/><path d="M27.12 10.657v4.055c.622-.836 1.453-1.255 2.494-1.255 1.847 0 2.77.974 2.77 2.923v5.173h-2.173V16.9c0-.541-.097-.954-.29-1.24-.195-.286-.562-.429-1.103-.429-.653 0-1.102.21-1.346.628-.235.418-.352.974-.352 1.668v4.025h-2.143V10.657h2.143zm13.724 10.896H38.64a3.36 3.36 0 01-.153-.765c-.663.663-1.515.994-2.556.994-.877 0-1.566-.209-2.066-.627-.5-.428-.75-1.015-.75-1.76 0-.337.041-.633.123-.887.091-.256.234-.47.428-.643.204-.174.393-.317.566-.429.184-.112.434-.204.75-.275.316-.072.572-.123.765-.153.194-.041.465-.082.812-.123.765-.102 1.275-.209 1.53-.321.265-.112.398-.322.398-.628 0-.704-.475-1.056-1.423-1.056-.5 0-.868.092-1.102.276-.235.173-.388.484-.46.934h-2.035c.123-1.776 1.342-2.663 3.658-2.663 2.295 0 3.443.857 3.443 2.57v3.413c0 1 .092 1.714.276 2.143zm-2.373-3.841c-.254.153-.765.29-1.53.413-.643.102-1.06.23-1.255.383-.224.193-.337.459-.337.795 0 .327.103.587.307.78.214.184.51.276.887.276.582 0 1.046-.153 1.393-.459.357-.316.535-.75.535-1.3v-.888zm8.406-4.194v2.005a4.319 4.319 0 00-.842-.092c-.714 0-1.24.23-1.576.69-.337.448-.505 1.055-.505 1.82v3.612H41.78v-7.897h2.066v1.454c.52-1.092 1.372-1.637 2.555-1.637.102 0 .26.015.475.045zm12.452 8.035h-2.204v-4.714c0-.52-.081-.918-.245-1.193-.163-.286-.5-.429-1.01-.429-1.01 0-1.515.633-1.515 1.898v4.438h-2.173v-4.806c0-.49-.082-.867-.245-1.132-.163-.275-.48-.413-.949-.413-1.05 0-1.576.688-1.576 2.066v4.285h-2.173v-7.897h2.066v1.087c.622-.867 1.459-1.301 2.51-1.301 1.091 0 1.836.434 2.234 1.3.633-.867 1.495-1.3 2.586-1.3.868 0 1.53.255 1.99.765.47.5.704 1.178.704 2.035v5.31zm8.513 0h-2.204a3.366 3.366 0 01-.153-.765c-.663.663-1.515.994-2.556.994-.877 0-1.566-.209-2.066-.627-.5-.428-.75-1.015-.75-1.76 0-.337.041-.633.123-.887.092-.256.234-.47.428-.643.204-.174.393-.317.566-.429.184-.112.434-.204.75-.275.317-.072.572-.123.766-.153.193-.041.464-.082.81-.123.766-.102 1.276-.209 1.53-.321.266-.112.399-.322.399-.628 0-.704-.475-1.056-1.423-1.056-.5 0-.868.092-1.102.276-.235.173-.388.484-.46.934h-2.035c.123-1.776 1.342-2.663 3.658-2.663 2.295 0 3.443.857 3.443 2.57v3.413c0 1 .092 1.714.276 2.143zm-2.373-3.841c-.254.153-.765.29-1.53.413-.643.102-1.06.23-1.255.383-.224.193-.336.459-.336.795 0 .327.102.587.306.78.214.184.51.276.887.276.582 0 1.046-.153 1.393-.459.357-.316.535-.75.535-1.3v-.888zm10.808.796c-.132 1.02-.535 1.816-1.209 2.387-.663.571-1.52.857-2.57.857-1.215 0-2.19-.372-2.924-1.117s-1.102-1.735-1.102-2.97c0-1.275.368-2.3 1.102-3.075.745-.776 1.73-1.163 2.954-1.163 1.05 0 1.908.27 2.571.81.663.531 1.04 1.256 1.132 2.174h-2.127c-.163-.908-.683-1.362-1.56-1.362-.593 0-1.057.23-1.393.689-.327.448-.49 1.076-.49 1.882 0 .785.158 1.398.474 1.836.327.429.78.643 1.362.643.95 0 1.51-.53 1.684-1.591h2.096zm7.9-4.852l-2.907 7.866c-.143.398-.25.674-.322.827a7.597 7.597 0 01-.306.673c-.132.286-.26.485-.382.597-.113.112-.27.24-.475.383-.194.142-.418.24-.673.29-.245.051-.53.077-.857.077-.265 0-.75-.005-1.454-.015v-1.791h1.056c.357 0 .627-.092.811-.275.194-.184.29-.444.29-.781 0-.082-.02-.184-.06-.306l-2.862-7.545h2.341l1.806 5.372 1.745-5.372h2.25zM10.597 5.81v9.09h2.868v.96h4.612c3.305 0 5.301-1.974 5.301-5.072 0-3.42-2.317-4.98-5.69-4.98h-7.091zm2.868 2.386h3.74c1.813 0 3.374.55 3.374 2.662 0 1.928-1.262 2.685-3.121 2.685h-3.993V8.196z" fill="#fff"/></svg>