<svg width="17" height="16" fill="none" xmlns="http://www.w3.org/2000/svg"><path fill-rule="evenodd" clip-rule="evenodd" d="M16.5 14.376a.387.387 0 00-.111-.29l-1.53-1.507a.406.406 0 00-.297-.109h-.52a7.75 7.75 0 001.392-2.284 7.141 7.141 0 00.501-2.646c0-1.377-.346-2.64-1.039-3.788a7.71 7.71 0 00-2.801-2.737C10.92.338 9.628 0 8.218 0 6.808 0 5.515.338 4.34 1.015a7.71 7.71 0 00-2.8 2.737A7.195 7.195 0 00.5 7.54a7.19 7.19 0 001.039 3.788 7.71 7.71 0 002.801 2.737c1.175.677 2.468 1.015 3.878 1.015a7.6 7.6 0 002.708-.49 8.013 8.013 0 002.338-1.359v.508c0 .096.037.193.111.29l1.53 1.47a.355.355 0 00.296.145.466.466 0 00.334-.145l.854-.797a.522.522 0 00.111-.326zm-5.314-1.815c-.915.52-1.905.78-2.968.78a5.912 5.912 0 01-2.969-.78 5.829 5.829 0 01-2.17-2.12 5.574 5.574 0 01-.798-2.9c0-1.04.266-2.007.798-2.901a5.829 5.829 0 012.17-2.12 5.913 5.913 0 012.969-.78c1.063 0 2.053.26 2.968.78a5.828 5.828 0 012.17 2.12 5.57 5.57 0 01.798 2.9c0 1.04-.266 2.006-.797 2.9a5.829 5.829 0 01-2.171 2.12z" fill="#8B98B2"/></svg>