<svg width="20" height="20" fill="none" xmlns="http://www.w3.org/2000/svg"><path fill-rule="evenodd" clip-rule="evenodd" d="M18.364 16.702a.396.396 0 00-.114-.296l-1.564-1.541a.416.416 0 00-.304-.111h-.531a7.93 7.93 0 001.423-2.336 7.305 7.305 0 00.512-2.707c0-1.408-.354-2.7-1.063-3.874a7.885 7.885 0 00-2.864-2.799C12.656 2.346 11.334 2 9.892 2c-1.442 0-2.764.346-3.965 1.038a7.885 7.885 0 00-2.865 2.8A7.358 7.358 0 002 9.71c0 1.41.354 2.7 1.063 3.875a7.885 7.885 0 002.865 2.799c1.201.692 2.523 1.038 3.965 1.038a7.79 7.79 0 002.77-.5 8.194 8.194 0 002.39-1.391v.519c0 .099.039.198.115.297l1.564 1.504a.363.363 0 00.303.148c.127 0 .24-.05.342-.148l.873-.816a.534.534 0 00.114-.334zm-5.435-1.856a6.046 6.046 0 01-3.036.797 6.04 6.04 0 01-3.036-.797 5.962 5.962 0 01-2.22-2.169 5.7 5.7 0 01-.816-2.966 5.7 5.7 0 01.816-2.965 5.96 5.96 0 012.22-2.17 6.047 6.047 0 013.036-.796c1.088 0 2.1.265 3.036.797a5.96 5.96 0 012.22 2.169 5.7 5.7 0 01.816 2.965 5.7 5.7 0 01-.816 2.966 5.961 5.961 0 01-2.22 2.17z" fill="#fff"/></svg>